<svg width="188" height="188" viewBox="0 0 188 188" fill="none" xmlns="http://www.w3.org/2000/svg">
<path fill-rule="evenodd" clip-rule="evenodd" d="M94.1982 0.178222C96.9597 0.178223 99.1982 2.4168 99.1982 5.17822L99.1982 30.1782C99.1982 32.9396 96.9597 35.1782 94.1982 35.1782C91.4368 35.1782 89.1982 32.9396 89.1982 30.1782L89.1982 5.17822C89.1982 2.4168 91.4368 0.178222 94.1982 0.178222Z" fill="white"/>
<path fill-rule="evenodd" clip-rule="evenodd" d="M94.1982 152.562C96.9597 152.562 99.1982 154.8 99.1982 157.562L99.1982 182.562C99.1982 185.323 96.9597 187.562 94.1982 187.562C91.4368 187.562 89.1982 185.323 89.1982 182.562L89.1982 157.562C89.1982 154.8 91.4368 152.562 94.1982 152.562Z" fill="white"/>
<path fill-rule="evenodd" clip-rule="evenodd" d="M187.89 93.8701C187.89 96.6315 185.652 98.8701 182.89 98.8701L157.89 98.8701C155.129 98.8701 152.89 96.6315 152.89 93.8701C152.89 91.1087 155.129 88.8701 157.89 88.8701L182.89 88.8701C185.652 88.8701 187.89 91.1087 187.89 93.8701Z" fill="white"/>
<path fill-rule="evenodd" clip-rule="evenodd" d="M35.5063 93.87C35.5063 96.6314 33.2678 98.87 30.5063 98.87L5.50635 98.87C2.74492 98.87 0.506348 96.6314 0.506348 93.87C0.506348 91.1086 2.74492 88.87 5.50635 88.87L30.5063 88.87C33.2678 88.87 35.5063 91.1086 35.5063 93.87Z" fill="white"/>
<path fill-rule="evenodd" clip-rule="evenodd" d="M160.448 27.62C162.401 29.5726 162.401 32.7384 160.448 34.6911L142.771 52.3687C140.818 54.3213 137.652 54.3213 135.7 52.3687C133.747 50.4161 133.747 47.2503 135.7 45.2977L153.377 27.62C155.33 25.6674 158.496 25.6674 160.448 27.62Z" fill="white"/>
<path fill-rule="evenodd" clip-rule="evenodd" d="M52.6969 135.371C54.6495 137.324 54.6495 140.49 52.6969 142.443L35.0192 160.12C33.0666 162.073 29.9008 162.073 27.9481 160.12C25.9955 158.168 25.9955 155.002 27.9481 153.049L45.6258 135.371C47.5784 133.419 50.7443 133.419 52.6969 135.371Z" fill="white"/>
<path fill-rule="evenodd" clip-rule="evenodd" d="M160.448 160.12C158.496 162.073 155.33 162.073 153.377 160.12L135.699 142.443C133.747 140.49 133.747 137.324 135.699 135.371C137.652 133.419 140.818 133.419 142.77 135.371L160.448 153.049C162.401 155.002 162.401 158.168 160.448 160.12Z" fill="white"/>
<path fill-rule="evenodd" clip-rule="evenodd" d="M52.6967 52.3685C50.744 54.3211 47.5782 54.3211 45.6256 52.3685L27.9479 34.6908C25.9953 32.7382 25.9953 29.5724 27.9479 27.6198C29.9006 25.6672 33.0664 25.6672 35.019 27.6198L52.6967 45.2975C54.6493 47.2501 54.6493 50.4159 52.6967 52.3685Z" fill="white"/>
</svg>
