<svg width="697" height="404" viewBox="0 0 697 404" fill="none" xmlns="http://www.w3.org/2000/svg">
<path fill-rule="evenodd" clip-rule="evenodd" d="M335.943 403.636L335.943 0L494.437 0C534.423 0 570.1 7.78819 600.77 24.1789C631.568 40.4559 655.475 64.0984 672.14 94.7412C688.99 125.386 696.966 161.336 696.966 201.818C696.966 242.298 689.05 278.284 672.343 309.025L672.335 309.041L672.326 309.057C655.677 339.558 631.92 363.19 601.38 379.594L601.35 379.61L601.32 379.626C570.787 395.892 535.409 403.636 495.858 403.636H335.943ZM591.383 41.8395C564.158 27.2798 531.842 20 494.437 20L355.943 20L355.943 383.636H495.858C532.789 383.636 564.809 376.416 591.916 361.974C619.023 347.415 639.975 326.581 654.771 299.474C669.567 272.249 676.966 239.697 676.966 201.818C676.966 163.939 669.508 131.447 654.593 104.34C639.797 77.1141 618.727 56.2808 591.383 41.8395ZM429.2 272.931L429.168 272.916C421.242 269.32 414.771 263.084 409.909 252.664L409.88 252.603L409.851 252.541C404.923 242.166 401.664 225.789 401.664 201.818C401.664 177.878 404.975 161.551 409.97 151.218L409.999 151.157L410.028 151.095C414.928 140.78 421.545 134.478 429.869 130.804L429.9 130.79L429.93 130.776C439.695 126.427 452.722 123.807 469.733 123.807H484.534L484.534 279.83H466.892C450.968 279.83 438.64 277.254 429.232 272.945L429.2 272.931ZM504.534 299.83L504.534 201.818V103.807H469.733C450.793 103.807 434.813 106.707 421.792 112.507C408.653 118.307 398.71 128.31 391.963 142.514C385.097 156.719 381.664 176.487 381.664 201.818C381.664 227.15 385.038 246.918 391.785 261.122C398.414 275.327 408.12 285.329 420.905 291.129C433.57 296.929 448.899 299.83 466.892 299.83H504.534Z" fill="white"/>
<path fill-rule="evenodd" clip-rule="evenodd" d="M545.115 182.208L545.096 182.197C539.239 178.907 534.636 174.234 531.477 168.315L531.472 168.305L531.466 168.294C528.334 162.392 526.926 155.821 526.926 148.869C526.926 141.923 528.332 135.358 531.472 129.469C534.627 123.528 539.235 118.841 545.115 115.567C551.121 112.197 557.948 110.744 565.193 110.744C572.437 110.744 579.265 112.197 585.271 115.567C591.151 118.842 595.759 123.528 598.914 129.47C602.054 135.358 603.46 141.923 603.46 148.869C603.46 155.821 602.052 162.392 598.919 168.294L598.914 168.305L598.908 168.315C595.75 174.234 591.147 178.907 585.29 182.197L585.271 182.208L585.252 182.218C579.249 185.557 572.429 186.994 565.193 186.994C557.956 186.994 551.136 185.557 545.133 182.218L545.115 182.208ZM590.086 134.168C587.837 129.93 584.606 126.639 580.392 124.295C576.178 121.928 571.111 120.744 565.193 120.744C559.274 120.744 554.208 121.928 549.994 124.295C545.78 126.639 542.548 129.93 540.299 134.168C538.05 138.382 536.926 143.282 536.926 148.869C536.926 154.456 538.05 159.369 540.299 163.607C542.548 167.821 545.78 171.111 549.994 173.479C554.208 175.822 559.274 176.994 565.193 176.994C571.111 176.994 576.178 175.822 580.392 173.479C584.606 171.111 587.837 167.821 590.086 163.607C592.335 159.369 593.46 154.456 593.46 148.869C593.46 143.282 592.335 138.382 590.086 134.168Z" fill="white"/>
<path fill-rule="evenodd" clip-rule="evenodd" d="M355.574 0V403.636H242.669L139.664 253.863V403.636H0.942871V0H115.343L216.852 149.474V0H355.574ZM236.852 210.341H234.011L104.75 20H20.9429V383.636H119.664V192.585H121.795L253.187 383.636H335.574V20H236.852V210.341Z" fill="white"/>
<circle cx="561.943" cy="275" r="27.5" fill="white" stroke="white"/>
<ellipse cx="564.443" cy="148.5" rx="9.5" ry="19.5" fill="white"/>
</svg>
